<svg width="593" height="597" xmlns="http://www.w3.org/2000/svg" xmlns:xlink="http://www.w3.org/1999/xlink" xml:space="preserve" overflow="hidden"><defs><clipPath id="clip0"><rect x="0" y="0" width="593" height="597"/></clipPath></defs><g clip-path="url(#clip0)"><path d="M298 0 357 59.7493 180 239 121 179.25 298 0Z" fill="#6F3393" fill-rule="evenodd"/><path d="M415.998 119 534 238.499 593 298.251 534 357.999 356.999 537.251 298 597 239 537.251 121 417.75 179.999 357.999 298 477.501 475 298.251 415.998 238.499 298 357.999 239 298.251 356.999 178.75 415.998 119Z" fill="#6F3393" fill-rule="evenodd"/><path d="M92.0001 346C83.3687 351.927 73.2869 355.289 62.9999 356 63.3799 354.205 63.8708 352.364 64.4731 350.507 67.294 351.026 70.3237 350.141 72.3389 347.933 72.8647 347.356 73.2855 346.725 73.6064 346.063 79.7148 347.236 85.3211 347.342 90.2974 346.378 90.8795 346.265 91.4447 346.139 92.0001 346Z" fill="#62B845" fill-rule="evenodd"/><path d="M65.0825 336.112C66.5685 336 68.0951 336.48 69.3087 337.58 71.736 339.782 71.9998 343.637 69.8992 346.178 67.7964 348.723 64.1152 349 61.6883 346.798 59.2614 344.598 59.0001 340.741 61.1007 338.199 62.1511 336.929 63.5962 336.224 65.0825 336.112Z" fill="#62B845" fill-rule="evenodd"/><path d="M44.4812 333C48.8254 335.913 53.3026 338.429 57.8753 340.514 57.2035 343.456 58.1633 346.657 60.6522 348.763 61.0768 349.123 61.529 349.436 61.9999 349.701 61.2513 352.072 60.65 354.421 60.2096 356.708 47.5651 357 34.7899 353.352 24.0001 345.608 27.6376 344.784 32.5276 342.11 38.6328 337.596 40.5222 336.201 42.4782 334.662 44.4812 333Z" fill="#62B845" fill-rule="evenodd"/><path d="M76.0318 327C79.062 329.132 81.9678 331.055 84.7035 332.73 89.4808 335.658 93.4874 337.679 96.6205 338.747 97.4798 339.039 98.2736 339.254 99 339.402 93.1641 343.711 84.5042 345 74.4319 342.964 74.6956 340.278 73.7177 337.501 71.5697 335.603 71.3832 335.438 71.1931 335.284 71.0002 335.142 72.5179 332.381 74.2 329.663 76.0318 327Z" fill="#62B845" fill-rule="evenodd"/><path d="M33.5314 324C34.0635 324.489 34.5935 324.967 35.1155 325.429 37.3642 327.418 39.6596 329.286 41.9999 331.029 40.2563 332.529 38.5521 333.921 36.8998 335.197 27.0664 342.793 21.8956 344 20.4575 342.727 18.9999 341.438 19.4621 336.048 25.3655 325.09 28.0633 326.166 31.1657 325.773 33.5314 324Z" fill="#62B845" fill-rule="evenodd"/><path d="M61.7965 316C65.9796 319.443 70.0811 322.641 73.9999 325.512 72.0723 328.346 70.3094 331.247 68.716 334.195 65.6037 333.206 62.0748 334.132 59.8102 336.838 59.5017 337.207 59.2294 337.597 58.9914 338 54.9541 336.036 50.9189 333.646 47.0001 330.914 51.763 326.577 56.765 321.534 61.7965 316Z" fill="#62B845" fill-rule="evenodd"/><path d="M86.875 314C89.3985 316.597 91.6982 319.102 93.7286 321.483 102.142 331.307 103 335.408 102.276 336.204 101.553 337 97.167 336.778 85.7533 330.255 82.9962 328.679 80.0612 326.867 77 324.861 78.4908 322.956 80.0708 321.089 81.7314 319.261 83.3937 317.434 85.1093 315.678 86.875 314Z" fill="#62B845" fill-rule="evenodd"/><path d="M27.7268 311.191C29.0865 311 30.505 311.312 31.7066 312.147L31.7433 312.171C31.9362 312.307 32.1266 312.46 32.3089 312.626 34.7345 314.835 35.0001 318.708 32.899 321.261 31.032 323.529 27.9128 324 25.54 322.523 25.5161 322.506 25.4901 322.486 25.4633 322.472L25.4607 322.469C25.1941 322.296 24.9366 322.102 24.6919 321.879 22.2663 319.67 22 315.798 24.0996 313.247 25.0661 312.074 26.3671 311.381 27.7268 311.191Z" fill="#62B845" fill-rule="evenodd"/><path d="M96.3017 306C96.4704 306.172 96.6501 306.337 96.84 306.497 99.0264 308.349 101.905 308.924 104.521 308.29 108 317.933 107.988 326.648 104.586 333 104.337 332.306 104.004 331.556 103.59 330.749 102.086 327.81 99.5039 324.142 95.918 319.843 93.8665 317.386 91.5454 314.786 89 312.096 91.3567 309.918 93.797 307.881 96.3017 306Z" fill="#62B845" fill-rule="evenodd"/><path d="M74.3763 301C78.1898 304.57 81.76 308.095 84.9999 311.483 83.2027 313.263 81.4571 315.122 79.769 317.06 78.0793 318.998 76.4753 320.983 74.9615 323 71.1155 320.301 67.0979 317.295 62.9999 314.052 64.9339 311.966 66.868 309.815 68.7876 307.613 70.7086 305.409 72.5737 303.2 74.3763 301Z" fill="#62B845" fill-rule="evenodd"/><path d="M42.2445 300C44.905 302.444 47.6673 304.9 50.5071 307.345 53.3483 309.79 56.1891 312.158 59.0001 314.424 53.8495 319.86 48.7317 324.796 43.8843 329 41.3913 327.225 38.9587 325.316 36.6173 323.299 36.1342 322.884 35.6449 322.459 35.1527 322.016 37.5664 318.581 37.1055 313.846 34 310.94 36.5508 307.338 39.304 303.683 42.2445 300Z" fill="#62B845" fill-rule="evenodd"/><path d="M13.8299 300C16.0479 304.065 18.7729 308.124 21.9602 312.103 19.0123 315.592 19.43 320.798 22.9259 323.785L23 323.848C19.3713 330.337 17.396 335.398 17.0899 339 7.89457 329.773 2.4817 318.065 1.00003 305.925 5.28661 304.484 9.59408 302.489 13.8299 300Z" fill="#62B845" fill-rule="evenodd"/><path d="M116.233 295C117 305.555 114.847 316.315 109.683 326 109.753 325.412 109.805 324.817 109.839 324.212 110.148 319.01 109.192 313.33 107 307.307 107.674 306.88 108.298 306.354 108.848 305.729 110.952 303.343 111.461 300.128 110.471 297.346 112.404 296.447 114.334 295.664 116.233 295Z" fill="#62B845" fill-rule="evenodd"/><path d="M102.083 294.104C103.57 294 105.097 294.443 106.309 295.46 108.737 297.493 109 301.054 106.9 303.397 104.799 305.743 101.118 306 98.6879 303.97 96.2627 301.936 95.9999 298.376 98.0995 296.031 99.15 294.859 100.596 294.207 102.083 294.104Z" fill="#62B845" fill-rule="evenodd"/><path d="M29.8088 288C33.2233 291.407 36.9809 294.942 40.9999 298.524 37.891 302.225 34.9791 305.902 32.2902 309.528 29.6512 308.392 26.5716 308.573 24.1013 310 20.9467 306.201 18.2191 302.262 16.0002 298.325 20.7511 295.429 25.3924 291.96 29.8088 288Z" fill="#62B845" fill-rule="evenodd"/><path d="M55.7955 285C58.6838 287.292 61.6001 289.692 64.5198 292.173 67.4394 294.656 70.2755 297.146 72.9999 299.625 71.1358 301.879 69.2014 304.142 67.2079 306.402 65.2147 308.662 63.2097 310.867 61.2043 313 58.3191 310.706 55.4005 308.308 52.4805 305.827 49.5619 303.345 46.7273 300.851 44 298.376 45.8645 296.123 47.7977 293.861 49.792 291.598 51.7881 289.335 53.7905 287.134 55.7955 285Z" fill="#62B845" fill-rule="evenodd"/><path d="M88.3553 282C91.5891 285.566 94.5009 289.303 96.9999 293.098 96.6411 293.394 96.3032 293.726 95.9895 294.088 93.6843 296.755 93.3006 300.443 94.7138 303.447 92.0777 305.469 89.5137 307.658 87.0348 310 83.6716 306.449 79.9617 302.76 76 299.028 80.6507 293.175 84.829 287.412 88.3553 282Z" fill="#62B845" fill-rule="evenodd"/><path d="M42.0378 274C45.8804 276.698 49.8974 279.704 54 282.942 52.0633 285.026 50.1339 287.175 48.208 289.387 46.2844 291.593 44.4206 293.8 42.62 296 38.807 292.43 35.2398 288.908 32 285.519 33.7879 283.744 35.5347 281.883 37.2281 279.939 38.9225 277.996 40.5249 276.011 42.0378 274Z" fill="#62B845" fill-rule="evenodd"/><path d="M78.8274 273C79.3292 273.411 79.8277 273.821 80.3074 274.228 82.642 276.199 84.8827 278.271 87 280.421 83.5202 285.672 79.3557 291.285 74.6984 297 72.0483 294.611 69.2949 292.213 66.4646 289.821 63.6333 287.431 60.8017 285.116 58.0001 282.902 61.2346 279.557 64.4691 276.395 67.6776 273.44 71.002 276.021 75.765 275.801 78.8274 273Z" fill="#62B845" fill-rule="evenodd"/><path d="M7.39072 272C6.96829 275.552 7.1918 279.435 8.06534 283.584 9.0052 288.07 10.6722 292.68 13.0001 297.307 8.93145 299.68 4.82148 301.605 0.774833 303 0 292.444 2.17922 281.685 7.39072 272Z" fill="#62B845" fill-rule="evenodd"/><path d="M12.3012 264C12.5532 264.73 12.8881 265.513 13.3075 266.357 14.8257 269.401 17.4276 273.205 21.0387 277.661 23.1028 280.207 25.4383 282.9 27.9998 285.686 23.8626 289.608 19.4861 293.081 15.0283 296 12.8998 291.565 11.3637 287.163 10.5126 282.97 8.99993 275.533 9.6253 269.068 12.3012 264Z" fill="#62B845" fill-rule="evenodd"/><path d="M71.9778 261.103C73.4865 261 75.0365 261.444 76.268 262.46 78.7278 264.491 79.0001 268.053 76.8719 270.396 74.7366 272.747 70.9977 273 68.5357 270.968 68.3495 270.814 68.1762 270.653 68.0138 270.484L67.987 270.456C66.2265 268.575 66 265.782 67.4293 263.668L67.4454 263.651C67.5899 263.433 67.7538 263.227 67.9334 263.029 69.001 261.856 70.4687 261.206 71.9778 261.103Z" fill="#62B845" fill-rule="evenodd"/><path d="M15.935 260.012C17.9328 260.05 22.3628 261.487 30.586 266.693 33.2376 268.371 36.0593 270.298 38.9998 272.431 37.5672 274.466 36.05 276.457 34.4541 278.401 32.8578 280.345 31.2072 282.213 29.5019 284 27.0754 281.232 24.866 278.567 22.9162 276.034 14.8321 265.585 14.0001 261.214 14.693 260.36L14.698 260.354C14.8737 260.143 15.2691 260 15.935 260.012Z" fill="#62B845" fill-rule="evenodd"/><path d="M99.737 258C109.031 267.284 114.503 279.064 116 291.279 113.765 292.025 111.497 292.938 109.229 294 108.896 293.584 108.518 293.193 108.095 292.833 105.631 290.739 102.287 290.271 99.4318 291.336 96.6893 287.229 93.5364 283.279 90.0001 279.511 91.3857 277.348 92.6469 275.244 93.7812 273.227 97.4401 266.708 99.4282 261.618 99.737 258Z" fill="#62B845" fill-rule="evenodd"/><path d="M51.4808 257C55.7467 258.554 60.0835 260.595 64.3407 263.074 63.2489 265.654 63.4903 268.645 65 271.017 61.7242 274.13 58.4266 277.469 55.129 281 50.9731 277.663 46.897 274.567 43 271.786 46.3735 266.96 49.2213 261.988 51.4808 257Z" fill="#62B845" fill-rule="evenodd"/><path d="M96.5466 255.25C98 256.485 97.5665 261.722 91.5557 272.418 90.5457 274.215 89.4309 276.08 88.2195 278 86.1731 275.949 84.0157 273.957 81.7449 272.028 81.2177 271.579 80.6733 271.127 80.1187 270.673 81.5102 268.106 81.4432 265.011 80.0001 262.516 89.8684 255.201 95.0742 254 96.5466 255.25Z" fill="#62B845" fill-rule="evenodd"/><path d="M35.9029 253.432C40.0319 253.672 44.4568 254.546 49.0002 255.994 46.8278 260.721 44.1151 265.445 40.9374 270 37.9162 267.907 35.0184 266.017 32.289 264.371 27.5217 261.491 23.5194 259.5 20.3983 258.455 19.5292 258.163 18.7306 257.951 17.9999 257.806 22.4705 254.506 28.5742 253 35.9029 253.432Z" fill="#62B845" fill-rule="evenodd"/><path d="M54 241C53.2028 245.23 51.9043 249.604 50.1658 254 45.3867 252.37 40.7134 251.398 36.2622 251.125 32.141 250.866 28.3671 251.224 25.0001 252.172 33.6335 245.553 43.7166 241.796 54 241Z" fill="#62B845" fill-rule="evenodd"/><path d="M57.1492 241.293C69.6697 241 82.3182 244.633 93.0002 252.34 89.3939 253.159 84.5471 255.826 78.4949 260.331L78.4203 260.269C74.889 257.262 69.5504 257.605 66.4421 261 61.9495 258.44 57.4416 256.349 52.9999 254.755 54.9105 250.234 56.3101 245.714 57.1492 241.293Z" fill="#62B845" fill-rule="evenodd"/></g></svg>